HIERARCHY
ROOT hip
{
	OFFSET 0.000000 0.000000 0.000000 
	CHANNELS 6 Xposition Yposition Zposition Zrotation Xrotation Yrotation
	JOINT abdomen
	{
		OFFSET 0.000000 3.402643 0.000000 
		CHANNELS 3 Zrotation Xrotation Yrotation
		JOINT chest
		{
			OFFSET 0.000000 8.438565 -0.680529 
			CHANNELS 3 Zrotation Xrotation Yrotation
			JOINT neck
			{
				OFFSET 0.000000 10.207942 -0.272212 
				CHANNELS 3 Zrotation Xrotation Yrotation
				JOINT head
				{
					OFFSET 0.000000 3.130431 0.000000 
					CHANNELS 3 Zrotation Xrotation Yrotation
					End Site
					{
						OFFSET 0.000000 3.130435 0.000000 
					}
				}
			}
			JOINT lCollar
			{
				OFFSET 3.470700 6.669187 -0.816635 
				CHANNELS 3 Zrotation Xrotation Yrotation
				JOINT lShldr
				{
					OFFSET 3.198488 0.000000 0.000000 
					CHANNELS 3 Zrotation Xrotation Yrotation
					JOINT lForeArm
					{
						OFFSET 10.139888 0.000000 0.000000 
						CHANNELS 3 Zrotation Xrotation Yrotation
						JOINT lHand
						{
							OFFSET 8.370511 0.000000 0.000000 
							CHANNELS 3 Zrotation Xrotation Yrotation
							End Site
							{
								OFFSET 4.083176 0.000000 0.000000 
							}
						}
					}
				}
			}
			JOINT rCollar
			{
				OFFSET -3.470700 6.669187 -0.816635 
				CHANNELS 3 Zrotation Xrotation Yrotation
				JOINT rShldr
				{
					OFFSET -3.198488 0.000000 0.000000 
					CHANNELS 3 Zrotation Xrotation Yrotation
					JOINT rForeArm
					{
						OFFSET -10.139888 0.000000 0.000000 
						CHANNELS 3 Zrotation Xrotation Yrotation
						JOINT rHand
						{
							OFFSET -8.370511 0.000000 0.000000 
							CHANNELS 3 Zrotation Xrotation Yrotation
							End Site
							{
								OFFSET -4.083176 0.000000 0.000000 
							}
						}
					}
				}
			}
		}
	}
	JOINT lThigh
	{
		OFFSET 5.308129 -1.633274 1.361059 
		CHANNELS 3 Zrotation Xrotation Yrotation
		JOINT lShin
		{
			OFFSET -2.041588 -20.007561 0.000000 
			CHANNELS 3 Zrotation Xrotation Yrotation
			JOINT lFoot
			{
				OFFSET 0.000000 -19.190928 -1.224953 
				CHANNELS 3 Zrotation Xrotation Yrotation
				End Site
				{
					OFFSET 0.000000 -2.449906 4.627600 
				}
			}
		}
	}
	JOINT rThigh
	{
		OFFSET -5.308129 -1.633274 1.361059 
		CHANNELS 3 Zrotation Xrotation Yrotation
		JOINT rShin
		{
			OFFSET 2.041588 -20.007561 0.000000 
			CHANNELS 3 Zrotation Xrotation Yrotation
			JOINT rFoot
			{
				OFFSET 0.000000 -19.190928 -1.224953 
				CHANNELS 3 Zrotation Xrotation Yrotation
				End Site
				{
					OFFSET 0.000000 -2.449906 4.627600 
				}
			}
		}
	}
}
MOTION
Frames: 8
Frame Time: 0.016667
2.814200 45.603680 124.514000 -4.755850 -3.037110 74.511597 2.518310 13.281700 -3.537350 -2.582750 -21.592899 -6.112970 4.027750 32.508099 -7.966260 4.411990 20.251699 -3.704190 -1.998780 -0.069785 1.998780 -76.477600 37.392700 -13.213700 -1.853970 -0.573974 -94.054497 -0.088052 0.625205 0.125105 1.998780 -0.069785 -1.998780 74.844498 8.457340 -15.046500 0.700271 1.411700 67.003197 0.099727 22.047001 -0.066352 8.448430 -18.874800 -6.267970 2.916720 60.653301 1.289060 1.197710 -41.864498 7.414990 1.757160 -26.761400 0.194859 -2.467740 59.567402 -1.798470 6.163240 -22.710699 19.115601 
2.844390 45.570778 126.640999 -5.195310 -3.193360 75.839500 2.610150 13.417100 -3.637880 -2.739520 -21.616199 -6.282360 4.151070 32.594501 -8.080080 4.432050 20.271200 -3.735000 -1.998780 -0.069785 1.998780 -76.702599 36.243301 -10.625200 -1.853750 -0.580108 -93.878799 -0.087797 0.508015 0.125102 1.998780 -0.069785 -1.998780 76.157799 7.868380 -16.068199 0.694004 1.402890 66.397903 0.098704 23.257999 -0.063481 8.458780 -19.436001 -7.559190 2.940790 60.818699 1.260870 1.812250 -42.936401 8.270750 2.369310 -26.590300 2.674070 -2.568440 59.062500 -1.672610 6.608260 -19.217899 22.044100 
2.887110 45.509880 128.744995 -5.507820 -3.183590 77.050301 2.272450 13.490400 -3.489170 -3.108000 -21.608700 -6.218980 4.283380 32.303101 -8.391380 4.341190 20.017599 -3.806080 -1.998780 -0.069785 1.998780 -76.409599 35.457500 -8.064740 -1.853520 -0.585220 -93.732399 -0.087190 0.244346 0.126109 1.998780 -0.069785 -1.998780 77.894096 6.736400 -16.968399 0.681822 1.386320 65.246101 0.097751 24.313000 -0.060939 8.299420 -19.692101 -9.034560 2.913410 60.790600 1.289030 1.064510 -43.826401 7.216760 2.648140 -25.908600 4.076580 -2.708280 58.044998 -1.489710 7.178500 -17.383101 24.687700 
2.939050 45.446880 130.824997 -5.781250 -3.144530 78.114601 2.113260 13.511900 -3.403590 -3.356710 -21.590599 -6.176050 4.182130 31.964399 -8.453320 4.270370 19.763901 -3.829850 -1.998780 -0.069785 1.998780 -76.049400 34.330101 -5.515590 -1.853380 -0.588629 -93.634697 -0.087170 -0.634552 0.128179 1.998780 -0.069785 -1.998780 79.171700 5.898930 -17.379999 0.664125 1.363420 63.625702 0.097205 24.889000 -0.059534 8.169440 -19.988800 -10.105700 2.913170 60.878502 1.281720 0.494916 -44.657200 6.445540 2.893730 -25.112101 4.554290 -2.834220 56.774101 -1.356550 8.246790 -18.778400 25.817900 
2.987670 45.383278 132.889008 -6.132810 -3.232420 79.110397 1.812540 13.369000 -3.199860 -3.484910 -21.608000 -5.956100 4.176380 31.822201 -8.656150 4.220200 19.695700 -3.914640 -1.998780 -0.069785 1.998780 -75.643997 33.306999 -3.160180 -1.852820 -0.600554 -93.293198 -0.086783 -1.640400 0.130287 1.998780 -0.069785 -1.998780 80.173798 4.782470 -17.609301 0.642746 1.337440 61.741699 0.096768 25.337999 -0.058429 8.285720 -20.553600 -10.833900 2.900910 61.153599 1.295080 0.049953 -45.241100 5.804180 3.243610 -24.338900 4.098600 -2.885930 55.369099 -1.295800 9.819710 -22.802999 25.867800 
3.054950 45.343079 134.908005 -6.621100 -3.242190 79.980301 1.611480 13.185600 -3.031350 -3.502670 -21.674200 -5.727320 4.082110 31.745001 -8.673110 4.220200 19.695700 -3.963460 -1.998780 -0.069785 1.998780 -75.404800 32.041801 -0.745112 -1.852030 -0.615200 -92.873497 -0.086940 -2.411890 0.131430 1.998780 -0.069785 -1.998780 80.990303 3.982930 -17.548800 0.618999 1.310500 59.730900 0.097318 24.771999 -0.059821 8.308910 -21.223499 -11.449600 2.863200 61.449699 1.340910 0.863383 -45.852200 6.907500 3.502410 -23.743299 3.798750 -2.922730 54.013500 -1.249020 11.310700 -24.938700 27.021601 
3.095120 45.287979 136.906006 -7.294920 -3.144530 80.682899 1.429510 12.864900 -2.762260 -3.431970 -21.824400 -5.301700 4.010050 31.702400 -8.762410 4.220500 19.783600 -4.041710 -1.998780 -0.069785 1.998780 -75.178596 30.887699 1.639680 -1.850780 -0.635286 -92.297699 -0.087010 -1.972430 0.130345 1.998780 -0.069785 -1.998780 81.587097 2.685290 -17.169399 0.589055 1.279070 57.300400 0.097411 24.674000 -0.060059 8.270630 -22.119200 -12.347800 2.800750 61.648300 1.400860 0.656942 -46.071899 6.592510 3.574190 -23.815701 3.283160 -2.921850 53.296902 -1.228580 12.354100 -25.604799 28.328300 
3.109440 45.238979 138.882996 -7.890630 -2.675780 81.376099 1.475390 12.464100 -2.593460 -3.412160 -21.962000 -4.937950 3.966900 31.326900 -8.855700 4.269930 19.636900 -4.152640 -1.998780 -0.069785 1.998780 -75.234901 29.350000 3.975500 -1.849000 -0.659438 -91.604698 -0.086784 -1.220480 0.129245 1.998780 -0.069785 -1.998780 82.029602 1.770660 -16.375000 0.554854 1.246230 54.645302 0.097402 24.684000 -0.060035 7.789860 -22.970301 -13.650300 2.765390 61.601101 1.446040 -0.104564 -45.830700 5.589890 2.963120 -24.489799 2.080960 -2.875760 53.437801 -1.299380 12.499800 -25.824600 28.484800 
